<svg version="1.1" id="Layer_1" xmlns="http://www.w3.org/2000/svg" xmlns:xlink="http://www.w3.org/1999/xlink" x="0px" y="0px"
	 width="100%" viewBox="0 0 50 50" enable-background="new 0 0 50 50" xml:space="preserve">
<path fill="#010200" opacity="1.000000" stroke="none" 
	d="
M31.000957,51.000000 
	C20.667440,51.000000 10.834126,51.000000 1.000609,51.000000 
	C1.000406,34.333637 1.000406,17.667271 1.000203,1.000680 
	C17.666332,1.000453 34.332664,1.000453 50.999245,1.000227 
	C50.999496,17.666300 50.999496,34.332600 50.999748,50.999451 
	C44.500389,51.000000 38.000774,51.000000 31.000957,51.000000 
M24.391367,16.781185 
	C22.757805,20.195225 19.372740,22.933876 20.494822,27.540159 
	C23.237394,24.551630 25.158215,21.135433 26.959213,17.657192 
	C26.998455,17.581406 25.666061,16.795395 24.391367,16.781185 
M39.179871,18.642416 
	C37.860859,21.413990 36.541847,24.185564 35.222836,26.957138 
	C35.987305,27.292608 36.751774,27.628078 37.516239,27.963549 
	C39.519745,24.321135 41.523251,20.678720 43.526752,17.036308 
	C42.989182,16.687407 42.451611,16.338507 41.914040,15.989606 
	C41.135921,16.672508 40.357803,17.355410 39.179871,18.642416 
M16.265135,25.257786 
	C15.573661,24.537991 14.882187,23.818195 14.190713,23.098402 
	C12.240812,26.453674 10.290912,29.808947 8.341012,33.164219 
	C9.105475,33.614731 9.869939,34.065243 10.634402,34.515755 
	C12.421231,31.638418 14.208061,28.761080 16.265135,25.257786 
M26.289799,33.996319 
	C28.628283,30.613596 30.966766,27.230875 33.305248,23.848156 
	C28.549736,24.202808 25.261675,29.605719 26.289799,33.996319 
z"/>
<path fill="#ABD644" opacity="1.000000" stroke="none" 
	d="
M24.682442,16.560940 
	C25.666061,16.795395 26.998455,17.581406 26.959213,17.657192 
	C25.158215,21.135433 23.237394,24.551630 20.494822,27.540159 
	C19.372740,22.933876 22.757805,20.195225 24.682442,16.560940 
z"/>
<path fill="#ADD845" opacity="1.000000" stroke="none" 
	d="
M39.379776,18.340364 
	C40.357803,17.355410 41.135921,16.672508 41.914040,15.989606 
	C42.451611,16.338507 42.989182,16.687407 43.526752,17.036308 
	C41.523251,20.678720 39.519745,24.321135 37.516239,27.963549 
	C36.751774,27.628078 35.987305,27.292608 35.222836,26.957138 
	C36.541847,24.185564 37.860859,21.413990 39.379776,18.340364 
z"/>
<path fill="#AEDA46" opacity="1.000000" stroke="none" 
	d="
M16.130013,25.570765 
	C14.208061,28.761080 12.421231,31.638418 10.634402,34.515755 
	C9.869939,34.065243 9.105475,33.614731 8.341012,33.164219 
	C10.290912,29.808947 12.240812,26.453674 14.190712,23.098402 
	C14.882187,23.818195 15.573661,24.537991 16.130013,25.570765 
z"/>
<path fill="#AAD544" opacity="1.000000" stroke="none" 
	d="
M25.921991,33.905228 
	C25.261675,29.605719 28.549736,24.202808 33.305248,23.848156 
	C30.966766,27.230875 28.628283,30.613596 25.921991,33.905228 
z"/>
</svg>