<svg version="1.1" id="Layer_1" xmlns="http://www.w3.org/2000/svg" xmlns:xlink="http://www.w3.org/1999/xlink" x="0px" y="0px"
	 width="100%" viewBox="0 0 256 256" enable-background="new 0 0 256 256" xml:space="preserve">
<path fill="#000000" opacity="1.000000" stroke="none" 
	d="
M141.000000,257.000000 
	C94.000000,257.000000 47.500004,257.000000 1.000006,257.000000 
	C1.000004,171.666672 1.000004,86.333351 1.000002,1.000018 
	C86.333321,1.000012 171.666641,1.000012 257.000000,1.000006 
	C257.000000,86.333313 257.000000,171.666626 257.000000,256.999969 
	C218.500000,257.000000 180.000000,257.000000 141.000000,257.000000 
M121.853363,80.190689 
	C112.937691,95.555321 103.937141,110.871796 95.171692,126.321655 
	C93.212585,129.774734 95.048935,134.091003 98.599892,136.120056 
	C102.044243,138.088196 106.634308,136.879166 108.934120,132.922699 
	C117.192451,118.715477 125.314705,104.428795 133.426407,90.136971 
	C135.333115,86.777573 135.382706,83.290276 132.426437,80.529755 
	C129.457352,77.757263 126.027824,77.030319 121.853363,80.190689 
M186.804413,136.731689 
	C188.500565,135.196228 190.709045,133.960587 191.811111,132.077469 
	C200.001221,118.082657 208.007278,103.979439 215.988846,89.863731 
	C218.301025,85.774551 217.280304,82.110840 213.431137,79.548843 
	C209.110138,76.672760 204.964142,78.085945 201.663223,83.777313 
	C193.855103,97.239967 186.090698,110.728325 178.381195,124.247681 
	C174.517197,131.023605 178.027313,136.732193 186.804413,136.731689 
M145.781937,152.320511 
	C151.415176,142.377335 157.143692,132.486313 162.630447,122.462959 
	C164.576859,118.907204 163.026733,114.285172 159.817078,112.487984 
	C156.513901,110.638428 151.153809,111.799278 149.204239,115.159721 
	C140.882919,129.503036 132.636520,143.890823 124.497864,158.338470 
	C122.216339,162.388611 123.372284,166.876099 126.752159,168.920715 
	C130.493332,171.183899 134.985489,170.232101 137.573242,166.228348 
	C140.359497,161.917496 142.789658,157.376511 145.781937,152.320511 
M76.223824,129.804413 
	C77.248062,128.099564 78.285820,126.402664 79.293991,124.688362 
	C82.198738,119.749092 81.608521,115.178764 77.768951,112.773285 
	C73.605591,110.164940 68.744194,111.877014 65.833580,116.973442 
	C58.265381,130.225220 50.948013,143.629990 43.006493,156.654160 
	C39.695312,162.084518 40.957916,166.594803 44.443367,168.876465 
	C48.551277,171.565598 53.285118,169.904709 56.372730,164.557861 
	C62.921001,153.218109 69.368988,141.820465 76.223824,129.804413 
z"/>
<path fill="#C2F24E" opacity="1.000000" stroke="none" 
	d="
M122.189545,80.030930 
	C126.027824,77.030319 129.457352,77.757263 132.426437,80.529755 
	C135.382706,83.290276 135.333115,86.777573 133.426407,90.136971 
	C125.314705,104.428795 117.192451,118.715477 108.934120,132.922699 
	C106.634308,136.879166 102.044243,138.088196 98.599892,136.120056 
	C95.048935,134.091003 93.212585,129.774734 95.171692,126.321655 
	C103.937141,110.871796 112.937691,95.555321 122.189545,80.030930 
z"/>
<path fill="#C1F24E" opacity="1.000000" stroke="none" 
	d="
M186.419022,136.804932 
	C178.027313,136.732193 174.517197,131.023605 178.381195,124.247681 
	C186.090698,110.728325 193.855103,97.239967 201.663223,83.777313 
	C204.964142,78.085945 209.110138,76.672760 213.431137,79.548843 
	C217.280304,82.110840 218.301025,85.774551 215.988846,89.863731 
	C208.007278,103.979439 200.001221,118.082657 191.811111,132.077469 
	C190.709045,133.960587 188.500565,135.196228 186.419022,136.804932 
z"/>
<path fill="#C1F24E" opacity="1.000000" stroke="none" 
	d="
M145.578552,152.628220 
	C142.789658,157.376511 140.359497,161.917496 137.573242,166.228348 
	C134.985489,170.232101 130.493332,171.183899 126.752159,168.920715 
	C123.372284,166.876099 122.216339,162.388611 124.497864,158.338470 
	C132.636520,143.890823 140.882919,129.503036 149.204239,115.159721 
	C151.153809,111.799278 156.513901,110.638428 159.817078,112.487984 
	C163.026733,114.285172 164.576859,118.907204 162.630447,122.462959 
	C157.143692,132.486313 151.415176,142.377335 145.578552,152.628220 
z"/>
<path fill="#C2F24E" opacity="1.000000" stroke="none" 
	d="
M76.040955,130.125488 
	C69.368988,141.820465 62.921001,153.218109 56.372730,164.557861 
	C53.285118,169.904709 48.551277,171.565598 44.443367,168.876465 
	C40.957916,166.594803 39.695312,162.084518 43.006493,156.654160 
	C50.948013,143.629990 58.265381,130.225220 65.833580,116.973442 
	C68.744194,111.877014 73.605591,110.164940 77.768951,112.773285 
	C81.608521,115.178764 82.198738,119.749092 79.293991,124.688362 
	C78.285820,126.402664 77.248062,128.099564 76.040955,130.125488 
z"/>
</svg>