<svg version="1.1" id="Layer_1" xmlns="http://www.w3.org/2000/svg" xmlns:xlink="http://www.w3.org/1999/xlink" x="0px" y="0px"
	 width="100%" viewBox="0 0 188 188" enable-background="new 0 0 188 188" xml:space="preserve">
<path fill="#010100" opacity="1.000000" stroke="none" 
	d="
M1.000000,188.000000 
	C1.000000,125.739639 1.000000,63.479279 1.000000,1.000000 
	C63.020721,1.000000 125.041702,1.000000 187.532043,1.468657 
	C188.001419,63.837528 188.001419,125.737740 188.001419,188.000000 
	C125.217918,188.000000 63.108959,188.000000 1.000000,188.000000 
M121.241455,98.828926 
	C123.210335,95.377907 125.277832,91.978653 127.123131,88.462776 
	C129.424164,84.078598 128.443741,79.651482 124.906288,77.567818 
	C121.148552,75.354408 116.063416,77.014374 113.552711,81.370796 
	C105.770042,94.874786 98.002136,108.387413 90.274811,121.923134 
	C87.389282,126.977631 87.973938,131.557693 91.646751,133.864044 
	C95.869743,136.515884 100.586395,135.022690 103.675499,129.708633 
	C109.503342,119.683212 115.157921,109.557083 121.241455,98.828926 
M90.818939,68.365120 
	C93.153214,64.346191 95.551910,60.362995 97.806099,56.299633 
	C100.894127,50.733192 100.158379,46.894218 95.651924,44.295776 
	C91.466599,41.882492 87.568413,43.136856 84.552086,48.349388 
	C76.563988,62.153690 68.679611,76.019005 60.875881,89.928436 
	C58.336990,94.453781 59.523426,98.739021 63.549515,101.085747 
	C67.355225,103.304039 71.713280,101.768356 74.405540,97.109039 
	C79.802628,87.768639 85.127960,78.386772 90.818939,68.365120 
M172.853333,69.345612 
	C175.537231,64.589783 178.254593,59.852432 180.894958,55.072552 
	C183.199905,50.899879 182.370163,47.292484 178.610764,44.682060 
	C174.880356,42.091766 171.247940,42.712917 168.192932,46.548332 
	C167.371597,47.579479 166.702637,48.742519 166.043839,49.890972 
	C158.709320,62.677036 151.433594,75.497063 144.048035,88.253510 
	C140.720016,94.001701 141.307449,98.427788 146.023422,101.098587 
	C150.201294,103.464645 154.064041,101.752831 157.272720,96.185753 
	C162.315903,87.435852 167.393234,78.705643 172.853333,69.345612 
M21.253962,98.697342 
	C16.631769,106.755898 12.005628,114.812195 7.388961,122.873917 
	C4.882380,127.250961 5.616444,131.372177 9.321253,133.827682 
	C13.051208,136.299850 17.797426,135.299805 20.411211,130.870239 
	C28.749941,116.738594 36.944935,102.519684 44.994476,88.221344 
	C47.436272,83.883995 45.994911,79.314476 42.239216,77.428482 
	C38.493618,75.547562 33.668472,76.915413 31.422932,80.750954 
	C28.072893,86.473083 24.905933,92.302391 21.253962,98.697342 
z"/>
<path fill="#808080" opacity="1.000000" stroke="none" 
	d="
M1.000000,188.500000 
	C63.108959,188.000000 125.217918,188.000000 188.001419,188.000000 
	C188.001419,125.737740 188.001419,63.837528 188.000702,1.468658 
	C188.333328,2.331128 188.957199,3.662026 188.958252,4.993412 
	C189.006317,66.245476 189.000000,127.497589 189.000000,189.000000 
	C126.333557,189.000000 63.666779,189.000000 1.000000,188.500000 
z"/>
<path fill="#C1F24E" opacity="1.000000" stroke="none" 
	d="
M121.062988,99.150871 
	C115.157921,109.557083 109.503342,119.683212 103.675499,129.708633 
	C100.586395,135.022690 95.869743,136.515884 91.646751,133.864044 
	C87.973938,131.557693 87.389282,126.977631 90.274811,121.923134 
	C98.002136,108.387413 105.770042,94.874786 113.552711,81.370796 
	C116.063416,77.014374 121.148552,75.354408 124.906288,77.567818 
	C128.443741,79.651482 129.424164,84.078598 127.123131,88.462776 
	C125.277832,91.978653 123.210335,95.377907 121.062988,99.150871 
z"/>
<path fill="#C2F24E" opacity="1.000000" stroke="none" 
	d="
M90.650925,68.693573 
	C85.127960,78.386772 79.802628,87.768639 74.405540,97.109039 
	C71.713280,101.768356 67.355225,103.304039 63.549515,101.085747 
	C59.523426,98.739021 58.336990,94.453781 60.875881,89.928436 
	C68.679611,76.019005 76.563988,62.153690 84.552086,48.349388 
	C87.568413,43.136856 91.466599,41.882492 95.651924,44.295776 
	C100.158379,46.894218 100.894127,50.733192 97.806099,56.299633 
	C95.551910,60.362995 93.153214,64.346191 90.650925,68.693573 
z"/>
<path fill="#C1F24E" opacity="1.000000" stroke="none" 
	d="
M172.654724,69.656357 
	C167.393234,78.705643 162.315903,87.435852 157.272720,96.185753 
	C154.064041,101.752831 150.201294,103.464645 146.023422,101.098587 
	C141.307449,98.427788 140.720016,94.001701 144.048035,88.253510 
	C151.433594,75.497063 158.709320,62.677036 166.043839,49.890972 
	C166.702637,48.742519 167.371597,47.579479 168.192932,46.548332 
	C171.247940,42.712917 174.880356,42.091766 178.610764,44.682060 
	C182.370163,47.292484 183.199905,50.899879 180.894958,55.072552 
	C178.254593,59.852432 175.537231,64.589783 172.654724,69.656357 
z"/>
<path fill="#C2F34E" opacity="1.000000" stroke="none" 
	d="
M21.457521,98.391724 
	C24.905933,92.302391 28.072893,86.473083 31.422932,80.750954 
	C33.668472,76.915413 38.493618,75.547562 42.239216,77.428482 
	C45.994911,79.314476 47.436272,83.883995 44.994476,88.221344 
	C36.944935,102.519684 28.749941,116.738594 20.411211,130.870239 
	C17.797426,135.299805 13.051208,136.299850 9.321253,133.827682 
	C5.616444,131.372177 4.882380,127.250961 7.388961,122.873917 
	C12.005628,114.812195 16.631769,106.755898 21.457521,98.391724 
z"/>
</svg>